# xmcd
#
# Track frame offsets:
#	150
#	13547
#	24223
#	35017
#	47017
#	58138
#	71267
#	85922
#	96679
#	109031
#	120934
#	131255
#	143636
#	155229
#	167306
#	179746
#	191458
#	202272
#	213805
#	228101
#	240658
#	252020
#	262660
#	271564
#	292605
#	303647
#	314843
#
# Disc length: 4326 seconds
#
# Revision: 1
# Processed by: cddbd v1.5.2PL0 Copyright (c) Steve Scherf et al.
# Submitted via: audiograbber 1.83.01
#
DISCID=6d10e41b
DTITLE=Various Artist - Philly Favorites Vol 2
DYEAR=1900
DGENRE=
TTITLE0=Ronnie Walker - I Really Really Love You
TTITLE1=Sir Mack Rice - Gotta Have My Baby's Love
TTITLE2=Millionaires - Never For Me
TTITLE3=Invitations - What's Wrong With Me
TTITLE4=Chuck Woods - Seven Days Is Too Long
TTITLE5=Harvey Scales - Get Down
TTITLE6=Lou Johnson - Always Something There To Remind Me
TTITLE7=Ray Pollard - Darling Take Me Back
TTITLE8=5 Smooth Tones - I Will Never Love Another
TTITLE9=Spellbinders - For You
TTITLE10=Shalimars - Stop And Take A Look At Yourself
TTITLE11=Hoagy Lands - Friends And Lovers
TTITLE12=Five Flights Up - Do What You Wanna Do
TTITLE13=Spidels - Like A Bee
TTITLE14=Esko Affair - Salt And Pepper
TTITLE15=Delfonics - You've Been Untrue
TTITLE16=R Dean Taylor - Ghost In My House
TTITLE17=S.N.& Ct's - The Pleasure Of Your Company
TTITLE18=Sons of Robin Stone - Got To Get You Back
TTITLE19=Jimmy Jones and Vegabonds - Come To Me Softly
TTITLE20=Steinways - My Heart's Not In It Anymore
TTITLE21=Flavor - Sally Had A Party
TTITLE22=Blisters - Shortnin N Bread
TTITLE23=Bunker Hill - Hide And Go Seek
TTITLE24=Tony Mason - We're Gonna Bring The Country To The City
TTITLE25=Emperor's - Karate
TTITLE26=Insiders - Do Do Do Bah Ah
EXTD=
EXTT0=
EXTT1=
EXTT2=
EXTT3=
EXTT4=
EXTT5=
EXTT6=
EXTT7=
EXTT8=
EXTT9=
EXTT10=
EXTT11=
EXTT12=
EXTT13=
EXTT14=
EXTT15=
EXTT16=
EXTT17=
EXTT18=
EXTT19=
EXTT20=
EXTT21=
EXTT22=
EXTT23=
EXTT24=
EXTT25=
EXTT26=
PLAYORDER=
